<svg width="372" height="372" viewBox="0 0 372 372" fill="none" xmlns="http://www.w3.org/2000/svg"
    xmlns:xlink="http://www.w3.org/1999/xlink">
    <rect y="13" width="372" height="358" rx="179" fill="url(#pattern0)" />
    <rect y="13" width="372" height="358" rx="179" fill="url(#pattern1)" />
    <rect y="13" width="372" height="358" rx="179" fill="url(#paint0_linear_347_13611)" />
    <mask id="mask0_347_13611" style="mask-type: alpha" maskUnits="userSpaceOnUse" x="0" y="0" width="372" height="372">
        <circle cx="186" cy="186" r="186" fill="#C4C4C4" />
    </mask>
    <g class="me" mask="url(#mask0_347_13611)">
        <g class="body">
            <path class="kiyim"
                d="M268.847 341.824C268.847 376.124 233.467 403.929 189.824 403.929C146.181 403.929 110.801 376.124 110.801 341.824C116.811 307.766 146.403 278.828 190.046 278.828C233.689 278.828 263.504 308.656 268.847 341.824Z"
                fill="#AF9EC7" />
            <rect class="neck" x="167.787" y="241.875" width="41.8488" height="84.5879" rx="20.9244" fill="#E5DBF3" />
            <path class="shadow"
                d="M167.787 241.875H209.635V268.142C209.635 268.142 199.841 273.039 188.488 273.039C177.136 273.039 167.787 268.142 167.787 268.142V241.875Z"
                fill="#CBBDDF" />
            <path class="top"
                d="M206.297 307.32C209.636 299.529 209.858 283.725 209.413 276.379C209.413 276.379 216.314 280.608 218.762 289.512C221.21 298.416 222.101 309.769 216.314 320.899C212.001 329.193 204.442 336.036 201.177 338.484L188.934 326.464L178.249 340.265C173.797 336.926 163.691 328.2 158.883 320.008C154.075 311.817 153.986 297.971 156.88 290.848C159.773 283.725 167.787 276.379 167.787 276.379C167.787 281.721 167.335 299.779 168.677 305.317C170.458 312.663 182.107 320.379 188.934 326.464C192.792 323.051 202.999 315.015 206.297 307.32Z"
                fill="#4A3667" />
        </g>
        <g class="head">
            <g class="face">
                <path class="yuz"
                    d="M118.814 129.909C118.814 92.4123 149.211 62.0156 186.707 62.0156C224.204 62.0156 254.6 92.4123 254.6 129.909V180.661C254.6 218.158 224.204 248.554 186.707 248.554C149.211 248.554 118.814 218.158 118.814 180.661V129.909Z"
                    fill="#E5DBF3" />
                <g class="inner-face">
                    <path class="eyebrow-left" d="M149.533 128.793C152.609 127.785 160.299 126.374 166.451 128.793"
                        stroke="#AF9EC7" stroke-width="12" stroke-linecap="round" />
                    <path class="eyebrow-right" d="M202.957 128.793C206.033 127.785 213.723 126.374 219.875 128.793"
                        stroke="#AF9EC7" stroke-width="12" stroke-linecap="round" />
                    <path class="mouth" d="M166.896 195.129C172.016 198.765 185.55 204.612 198.728 198.913"
                        stroke="#AF9EC7" stroke-width="3" stroke-linecap="round" />
                    <g class="eyes">
                        <ellipse class="eye-left eye" cx="156.211" cy="151.053" rx="6.67799" ry="8.01359"
                            fill="#4A3667" />
                        <ellipse class="chap-qovoq" cx="150.869" cy="167.899" rx="5.50001" ry="6.60828"
                            transform="rotate(-21.9067 150.869 167.899)" fill="#D3C2EC" />
                        <ellipse class="ong-qovoq" rx="5.50001" ry="6.60828"
                            transform="matrix(-0.927792 -0.373097 -0.373097 0.927792 216.313 168.142)" fill="#D3C2EC" />
                        <ellipse class="eye-right eye" cx="209.635" cy="151.053" rx="6.67799" ry="8.01359"
                            fill="#4A3667" />
                    </g>

                    <path class="nose" d="M179.634 174C181.86 175.113 187.425 176.671 191.877 174" stroke="#AF9EC7"
                        stroke-width="3" stroke-linecap="round" />

                    <g class="glasess">
                        <path class="ochki-chap"
                            d="M152.235 176.254C138.502 176.254 127.329 165.081 127.329 151.348C128.697 118.306 175.779 118.316 177.142 151.348C177.142 165.081 165.969 176.254 152.235 176.254ZM152.235 130.818C140.915 130.818 131.706 140.028 131.706 151.348C132.834 178.583 171.642 178.575 172.765 151.348C172.765 140.028 163.555 130.818 152.235 130.818Z"
                            fill="#CBBDDF" />
                        <path class="ochki-ong"
                            d="M213.752 176.254C200.018 176.254 188.845 165.081 188.845 151.348C190.213 118.306 237.295 118.316 238.658 151.348C238.658 165.081 227.485 176.254 213.752 176.254ZM213.752 130.818C202.432 130.818 193.222 140.028 193.222 151.348C194.35 178.583 233.158 178.576 234.281 151.348C234.281 140.028 225.072 130.818 213.752 130.818Z"
                            fill="#CBBDDF" />
                        <path class="ochki-orta"
                            d="M172.951 144.199C171.463 144.225 170.346 142.637 170.902 141.243C175.154 130.093 190.842 130.058 195.084 141.243C195.508 142.374 194.935 143.635 193.803 144.059C192.671 144.484 191.41 143.91 190.986 142.778C189.707 139.366 186.432 137.127 182.82 137.195C179.367 137.264 176.224 139.508 175.001 142.777C174.672 143.656 173.838 144.199 172.951 144.199Z"
                            fill="#CBBDDF" />
                        <path class="ochki-ong-quloq"
                            d="M240.087 144.197H234.469C233.26 144.197 232.28 143.217 232.28 142.009C232.28 140.8 233.26 139.82 234.469 139.82H240.087C242.983 139.92 242.985 144.097 240.087 144.197Z"
                            fill="#CBBDDF" />
                        <path class="ochki-chap-quloq"
                            d="M131.519 144.197H125.9C124.691 144.197 123.712 143.217 123.712 142.009C123.712 140.8 124.691 139.82 125.9 139.82H131.519C134.414 139.92 134.416 144.097 131.519 144.197Z"
                            fill="#CBBDDF" />
                    </g>
                </g>
                <g class="hair-front">
                    <path class="ong-quloq-soch"
                        d="M253.933 149.05C255.179 150.653 254.378 175.985 254.378 188.45L250.148 187.338L248.145 149.496C250 148.828 252.686 147.447 253.933 149.05Z"
                        fill="#AF9EC7" />
                    <path class="chap-quloq-soch"
                        d="M118.807 182.229L118.815 182.662L122.376 181.326L125.921 149.494C124.066 148.827 120.729 147.892 119.482 149.494C118.25 151.079 118.584 169.759 118.807 182.229Z"
                        fill="#AF9EC7" />
                    <path class="ong-soch"
                        d="M185.643 93.8657C178.856 88.7199 167.909 86.7425 158.043 90.6137C148.177 94.4849 132.67 117.071 130.663 133.488C129.058 146.623 124.58 164.759 123.985 170.885C123.985 170.885 116.789 156.185 113.3 143.06C108.367 124.5 109.961 107.444 113.3 93.8657C116.639 80.2871 122 66 143.5 57C165 48 185.643 59.5854 185.643 59.5854C185.643 59.5854 203.343 50.5 225.5 57C247.657 63.5 255.003 80.2871 258.342 93.8657C261.681 107.444 263.275 124.5 258.342 143.06C254.854 156.185 247.657 170.885 247.657 170.885C247.062 164.759 242.584 146.623 240.979 133.488C238.973 117.071 223.465 94.4849 213.599 90.6137C203.733 86.7425 192.43 88.7199 185.643 93.8657Z"
                        fill="#4A3667" />
                </g>
            </g>
            <g class="ear-left ear">
                <ellipse class="chap-quloq" cx="115.476" cy="208.038" rx="18.4758" ry="18.2532" fill="#E5DBF3" />
                <path
                    d="M126.383 206.924C123.89 205.499 113.027 205.588 107.907 205.811C106.794 208.26 120.373 208.705 128.609 214.492C128.906 212.563 128.876 208.349 126.383 206.924Z"
                    class="chap-quloq-ichi" fill="#AF9EC7" />
            </g>

            <g class="ear-right ear">
                <ellipse class="ong-quloq" rx="18.4758" ry="18.2532" transform="matrix(-1 0 0 1 257.049 208.038)"
                    fill="#E5DBF3" />
                <path
                    d="M246.142 206.924C248.635 205.499 259.498 205.588 264.618 205.811C265.731 208.26 252.152 208.705 243.916 214.492C243.619 212.563 243.649 208.349 246.142 206.924Z"
                    class="ong-quloq-ichi" fill="#AF9EC7" />
            </g>
        </g>
    </g>
</svg>