<svg width="59" height="65" viewBox="0 0 59 65" fill="none" xmlns="http://www.w3.org/2000/svg">
<path fill-rule="evenodd" clip-rule="evenodd" d="M10.4809 3.98892C9.25128 5.96941 8.24391 8.16491 8.24166 8.86645C8.2394 9.56799 6.46045 11.1728 4.28892 12.4307C4.28892 12.4307 0.341259 13.4614 0.340702 15.5305C0.340145 17.5997 0.340702 36.1755 0.340702 36.1755C0.340702 57.0354 0.410642 57.6915 2.87885 59.8294C8.9185 65.0605 25.9931 66.7854 37.0318 61.664C42.7393 59.0159 43.5547 59.4877 43.5547 55.1411C43.5547 48.8515 47.2795 50.3249 52.878 45.7587C55.9554 43.2507 59 36.1145 59 31.4121C59 25.2024 55.1917 21.4443 48.8982 21.4443C44.5642 21.4443 44.3352 21.2747 44.3352 18.0674C44.3352 15.4773 43.5489 14.2527 40.9566 12.803C38.5697 11.4698 37.3683 9.77856 36.8618 7.03668C35.6028 0.229652 32.7748 -1.54692 30.6134 3.11449C29.4966 5.52167 28.6562 5.8331 23.4333 5.77214C18.3209 5.71119 17.3519 5.34213 16.2859 3.04468C14.6231 -0.540596 13.1431 -0.300103 10.4809 3.98892ZM7.10908 14.573C7.10908 15.0606 6.49993 16.0581 5.75541 16.7895C3.98435 18.5295 5.40345 19.8716 11.0381 21.7889C14.5329 22.977 15.6733 24.0443 16.4009 26.8039C17.8663 32.3597 23.466 31.186 23.466 25.3232C23.466 23.6065 24.2184 23.1067 26.7994 23.1067C29.4256 23.1067 30.2739 23.6952 30.7984 25.8774C31.2835 27.8978 32.2096 28.6481 34.2198 28.6481C36.6644 28.6481 37.0682 28.0219 37.8003 23.1067C38.2549 20.0589 38.3407 16.6499 37.9898 15.5305C37.436 13.7606 37.6627 13.6586 39.7406 14.7514C42.0588 15.9705 42.1197 16.6078 41.8219 36.7352L41.515 57.4632L36.1883 60.0599C27.4312 64.3279 11.7127 63.7926 5.53092 59.0159L2.59683 56.7484V36.5467C2.59683 22.3132 2.24 16.7895 2.87885 15.5305C4.4288 14.0077 7.10908 13.2685 7.10908 14.573ZM19.5178 16.0614C19.5178 17.1375 16.0738 18.2136 14.904 17.5032C13.0134 16.3551 13.8515 15.3488 16.6976 15.3488C18.2487 15.3488 19.5178 15.669 19.5178 16.0614ZM31.9265 16.1146C31.9265 17.4567 29.9332 18.1494 28.0798 17.4501C25.3882 16.436 25.9195 15.3488 29.1063 15.3488C30.6574 15.3488 31.9265 15.6934 31.9265 16.1146ZM54.9875 26.1245C57.2177 29.2521 58.0412 32.4794 55.7851 38.0186C54.9875 43.0191 46.0183 49.1516 44.6443 47.8029C44.4433 47.6054 44.0955 46.1721 44.3699 44.5414C44.9915 43.749 46.6012 43.8942 47.632 42.9107C52.0439 38.7004 53.7545 35.7809 53.1657 30.7217C52.878 28.2501 51.1036 27.403 48.5654 27.1962C46.2394 27.0067 44.3352 26.4659 44.3352 25.9949C44.3352 21.7889 52.5904 22.7609 54.9875 26.1245ZM51.1036 32.3774C51.1036 37.9886 46.6466 42.0954 44.6443 42.0954C44.069 42.0954 44.3352 39.1734 44.3352 36.4614C44.3352 32.9327 43.8295 29.865 44.6443 28.2343C48.7211 28.2343 51.1036 29.0482 51.1036 32.3774Z" fill="white"/>
<path fill-rule="evenodd" clip-rule="evenodd" d="M16.5185 39.2085C18.086 36.1472 20.4055 34.3605 23.3233 33.9666C23.7334 33.9113 25.3355 34.0814 25.8015 34.2298C26.8973 34.5787 28.2142 35.4982 28.9837 36.4517C29.7195 37.3633 30.307 38.5039 30.7176 39.8175C31.0226 40.7932 31.0421 40.9853 31.0462 43.0452C31.0503 45.0891 31.029 45.3114 30.7285 46.3732C30.1646 48.3651 29.1673 50.1725 27.897 51.5047C25.911 53.5874 23.2709 54.478 20.8809 53.8714C19.0211 53.3994 17.2834 51.9305 16.3239 50.0194C15.5492 48.4762 15.2945 47.4231 15.2184 45.449C15.127 43.0753 15.5305 41.1383 16.5185 39.2085ZM26.7891 37.1183C27.6234 37.5288 28.3703 38.6665 28.9042 40.3402C29.1443 41.0929 29.1787 41.4321 29.1787 43.0452C29.1787 44.6127 29.1382 45.0355 28.9089 45.8617C28.1619 48.5528 26.595 50.6605 24.6261 51.6228C24.1028 51.8784 23.4238 52.1211 23.1172 52.1619L22.5598 52.2361L22.9867 51.6177C23.9648 50.2011 24.3187 48.8973 24.3187 46.7113C24.3187 45.7836 24.2325 44.7216 24.0869 43.8521C23.829 42.3127 23.7827 40.436 23.9797 39.5061C24.1668 38.6231 24.7244 37.5325 25.198 37.1231C25.655 36.7281 25.994 36.7271 26.7891 37.1183ZM22.1625 39.0921C22.3636 38.1311 22.9856 36.7395 23.464 36.1797C23.7999 35.7867 23.7935 35.7577 23.3819 35.8128C20.6334 36.1809 18.2139 38.8257 17.3244 42.4348C17.0335 43.6152 17.0378 46.4333 17.3321 47.4833C17.6281 48.5397 18.3241 49.8823 18.8376 50.3878C19.365 50.9069 20.4356 51.27 20.8675 51.0764C21.2278 50.9147 21.8295 50.0325 22.1254 49.2318C22.4958 48.2294 22.538 46.0047 22.2219 44.1403C21.924 42.384 21.9001 40.3462 22.1625 39.0921Z" fill="white"/>
</svg>
