<svg width="217" height="217" viewBox="0 0 217 217" fill="none" xmlns="http://www.w3.org/2000/svg">
<path d="M215.999 194.213C215.999 206.248 206.276 215.998 194.289 215.998C182.303 215.998 172.58 206.248 172.58 194.213C172.58 182.179 182.303 172.428 194.289 172.428C206.276 172.428 215.999 182.179 215.999 194.213Z" fill="#131B24" stroke="white" stroke-width="2"/>
<mask id="path-2-inside-1_1_2" fill="white">
<path d="M0 1.44667C0 0.647693 0.645543 0 1.44186 0H71.3721C72.1684 0 72.814 0.647695 72.814 1.44667V215.553C72.814 216.352 72.1684 217 71.3721 217H1.44186C0.645543 217 0 216.352 0 215.553V1.44667Z"/>
<path d="M87.2326 2.89333C87.2326 1.5294 87.2326 0.847438 87.6549 0.423719C88.0772 0 88.7569 0 90.1163 0H157.163C158.522 0 159.202 0 159.624 0.423719C160.047 0.847438 160.047 1.5294 160.047 2.89333V30.9931C160.047 62.7335 160.047 78.6037 150.877 88.9768C149.913 90.0674 148.884 91.099 147.798 92.0662C137.459 101.267 121.641 101.267 90.0064 101.267C88.7536 101.267 88.1271 101.267 87.7177 100.902C87.6746 100.864 87.6339 100.823 87.5957 100.78C87.2326 100.369 87.2326 99.7406 87.2326 98.4835V2.89333Z"/>
<path d="M87.2326 118.516C87.2326 117.259 87.2326 116.631 87.5957 116.22C87.6339 116.177 87.6746 116.136 87.7177 116.098C88.1271 115.733 88.7536 115.733 90.0064 115.733C121.641 115.733 137.459 115.733 147.798 124.934C148.884 125.901 149.913 126.933 150.877 128.023C160.047 138.396 160.047 154.266 160.047 186.007V214.107C160.047 215.471 160.047 216.153 159.624 216.576C159.202 217 158.522 217 157.163 217H90.1163C88.7569 217 88.0772 217 87.6549 216.576C87.2326 216.153 87.2326 215.471 87.2326 214.107V118.516Z"/>
</mask>
<path d="M0 1.44667C0 0.647693 0.645543 0 1.44186 0H71.3721C72.1684 0 72.814 0.647695 72.814 1.44667V215.553C72.814 216.352 72.1684 217 71.3721 217H1.44186C0.645543 217 0 216.352 0 215.553V1.44667Z" fill="#131B24"/>
<path d="M87.2326 2.89333C87.2326 1.5294 87.2326 0.847438 87.6549 0.423719C88.0772 0 88.7569 0 90.1163 0H157.163C158.522 0 159.202 0 159.624 0.423719C160.047 0.847438 160.047 1.5294 160.047 2.89333V30.9931C160.047 62.7335 160.047 78.6037 150.877 88.9768C149.913 90.0674 148.884 91.099 147.798 92.0662C137.459 101.267 121.641 101.267 90.0064 101.267C88.7536 101.267 88.1271 101.267 87.7177 100.902C87.6746 100.864 87.6339 100.823 87.5957 100.78C87.2326 100.369 87.2326 99.7406 87.2326 98.4835V2.89333Z" fill="#131B24"/>
<path d="M87.2326 118.516C87.2326 117.259 87.2326 116.631 87.5957 116.22C87.6339 116.177 87.6746 116.136 87.7177 116.098C88.1271 115.733 88.7536 115.733 90.0064 115.733C121.641 115.733 137.459 115.733 147.798 124.934C148.884 125.901 149.913 126.933 150.877 128.023C160.047 138.396 160.047 154.266 160.047 186.007V214.107C160.047 215.471 160.047 216.153 159.624 216.576C159.202 217 158.522 217 157.163 217H90.1163C88.7569 217 88.0772 217 87.6549 216.576C87.2326 216.153 87.2326 215.471 87.2326 214.107V118.516Z" fill="#131B24"/>
<path d="M87.7177 100.902L86.7205 102.023L87.7177 100.902ZM87.5957 100.78L88.7196 99.7865L87.5957 100.78ZM150.877 88.9768L152 89.9703L152 89.9703L150.877 88.9768ZM147.798 92.0662L148.795 93.1868L148.795 93.1868L147.798 92.0662ZM147.798 124.934L148.795 123.813L148.795 123.813L147.798 124.934ZM150.877 128.023L152 127.03L152 127.03L150.877 128.023ZM87.7177 116.098L86.7205 114.977L87.7177 116.098ZM87.5957 116.22L88.7196 117.214L87.5957 116.22ZM1.44186 1.5H71.3721V-1.5H1.44186V1.5ZM71.314 1.44667V215.553H74.314V1.44667H71.314ZM71.3721 215.5H1.44186V218.5H71.3721V215.5ZM1.5 215.553V1.44667H-1.5V215.553H1.5ZM1.44186 215.5C1.47864 215.5 1.5 215.529 1.5 215.553H-1.5C-1.5 217.176 -0.187556 218.5 1.44186 218.5V215.5ZM71.314 215.553C71.314 215.529 71.3353 215.5 71.3721 215.5V218.5C73.0015 218.5 74.314 217.176 74.314 215.553H71.314ZM71.3721 1.5C71.3353 1.5 71.314 1.47141 71.314 1.44667H74.314C74.314 -0.176022 73.0015 -1.5 71.3721 -1.5V1.5ZM1.44186 -1.5C-0.187585 -1.5 -1.5 -0.176025 -1.5 1.44667H1.5C1.5 1.47141 1.47867 1.5 1.44186 1.5V-1.5ZM90.1163 1.5H157.163V-1.5H90.1163V1.5ZM158.547 2.89333V30.9931H161.547V2.89333H158.547ZM88.7326 98.4835V2.89333H85.7326V98.4835H88.7326ZM90.0064 99.7667C89.3409 99.7667 88.9816 99.7639 88.7318 99.7327C88.5192 99.7061 88.6015 99.6808 88.7149 99.7817L86.7205 102.023C87.2433 102.488 87.8435 102.645 88.3597 102.71C88.8388 102.769 89.4191 102.767 90.0064 102.767V99.7667ZM85.7326 98.4835C85.7326 99.0733 85.7298 99.6544 85.7894 100.134C85.8534 100.65 86.009 101.25 86.4719 101.773L88.7196 99.7865C88.8193 99.8992 88.7933 99.9796 88.7665 99.7643C88.7353 99.5125 88.7326 99.1509 88.7326 98.4835H85.7326ZM88.7149 99.7817C88.7164 99.7831 88.718 99.7847 88.7196 99.7865L86.4719 101.773C86.5498 101.862 86.6329 101.945 86.7205 102.023L88.7149 99.7817ZM158.547 30.9931C158.547 46.9021 158.544 58.695 157.412 67.8129C156.284 76.8944 154.056 83.115 149.753 87.9834L152 89.9703C156.867 84.4656 159.224 77.5645 160.389 68.1825C161.549 58.8369 161.547 46.8245 161.547 30.9931H158.547ZM90.0064 102.767C105.785 102.767 117.758 102.769 127.074 101.605C136.427 100.436 143.307 98.0701 148.795 93.1868L146.8 90.9457C141.949 95.2628 135.751 97.4971 126.702 98.6282C117.616 99.7639 105.863 99.7667 90.0064 99.7667V102.767ZM149.753 87.9834C148.828 89.0291 147.843 90.0183 146.8 90.9457L148.795 93.1868C149.926 92.1797 150.997 91.1057 152 89.9703L149.753 87.9834ZM157.163 1.5C157.885 1.5 158.275 1.50321 158.544 1.5395C158.77 1.5699 158.676 1.59679 158.562 1.48261L160.687 -0.635175C160.151 -1.17307 159.505 -1.35805 158.945 -1.43357C158.429 -1.50321 157.8 -1.5 157.163 -1.5V1.5ZM161.547 2.89333C161.547 2.25363 161.55 1.62346 161.48 1.10672C161.405 0.54735 161.222 -0.0979704 160.687 -0.635175L158.562 1.48261C158.449 1.36913 158.476 1.27665 158.507 1.50517C158.543 1.77633 158.547 2.1691 158.547 2.89333H161.547ZM90.1163 -1.5C89.4791 -1.5 88.8499 -1.50321 88.3336 -1.43357C87.7738 -1.35805 87.1286 -1.17307 86.5925 -0.635175L88.7173 1.48261C88.6035 1.59679 88.5093 1.56991 88.7347 1.5395C89.0038 1.50321 89.394 1.5 90.1163 1.5V-1.5ZM88.7326 2.89333C88.7326 2.1691 88.7357 1.77633 88.7721 1.50517C88.8027 1.27665 88.8304 1.36913 88.7173 1.48261L86.5925 -0.635175C86.057 -0.0979705 85.8736 0.547349 85.7986 1.10672C85.7294 1.62346 85.7326 2.25363 85.7326 2.89333H88.7326ZM158.547 186.007V214.107H161.547V186.007H158.547ZM157.163 215.5H90.1163V218.5H157.163V215.5ZM88.7326 214.107V118.516H85.7326V214.107H88.7326ZM90.1163 215.5C89.394 215.5 89.0038 215.497 88.7347 215.46C88.5093 215.43 88.6035 215.403 88.7173 215.517L86.5925 217.635C87.1286 218.173 87.7738 218.358 88.3337 218.434C88.8499 218.503 89.4791 218.5 90.1163 218.5V215.5ZM85.7326 214.107C85.7326 214.746 85.7294 215.377 85.7986 215.893C85.8736 216.453 86.057 217.098 86.5925 217.635L88.7173 215.517C88.8304 215.631 88.8027 215.723 88.7721 215.495C88.7357 215.224 88.7326 214.831 88.7326 214.107H85.7326ZM158.547 214.107C158.547 214.831 158.543 215.224 158.507 215.495C158.476 215.723 158.449 215.631 158.562 215.517L160.687 217.635C161.222 217.098 161.405 216.453 161.48 215.893C161.55 215.377 161.547 214.746 161.547 214.107H158.547ZM157.163 218.5C157.8 218.5 158.429 218.503 158.945 218.434C159.505 218.358 160.151 218.173 160.687 217.635L158.562 215.517C158.676 215.403 158.77 215.43 158.544 215.46C158.275 215.497 157.885 215.5 157.163 215.5V218.5ZM90.0064 117.233C105.863 117.233 117.616 117.236 126.702 118.372C135.751 119.503 141.949 121.737 146.8 126.054L148.795 123.813C143.307 118.93 136.427 116.564 127.074 115.395C117.758 114.231 105.785 114.233 90.0064 114.233V117.233ZM161.547 186.007C161.547 170.175 161.549 158.163 160.389 148.817C159.224 139.435 156.867 132.534 152 127.03L149.753 129.017C154.056 133.885 156.284 140.106 157.412 149.187C158.544 158.305 158.547 170.098 158.547 186.007H161.547ZM146.8 126.054C147.843 126.982 148.828 127.971 149.753 129.017L152 127.03C150.997 125.894 149.926 124.82 148.795 123.813L146.8 126.054ZM90.0064 114.233C89.4191 114.233 88.8388 114.231 88.3597 114.29C87.8435 114.355 87.2433 114.512 86.7205 114.977L88.7149 117.218C88.6015 117.319 88.5193 117.294 88.7318 117.267C88.9816 117.236 89.3409 117.233 90.0064 117.233V114.233ZM88.7326 118.516C88.7326 117.849 88.7353 117.487 88.7665 117.236C88.7933 117.02 88.8193 117.101 88.7196 117.214L86.4719 115.227C86.009 115.75 85.8534 116.35 85.7894 116.866C85.7298 117.346 85.7326 117.927 85.7326 118.516H88.7326ZM86.7205 114.977C86.6328 115.055 86.5498 115.138 86.4719 115.227L88.7196 117.214C88.718 117.215 88.7165 117.217 88.7149 117.218L86.7205 114.977Z" fill="white" mask="url(#path-2-inside-1_1_2)"/>
<mask id="mask0_1_2" style="mask-type:alpha" maskUnits="userSpaceOnUse" x="0" y="0" width="161" height="217">
<mask id="path-4-inside-2_1_2" fill="white">
<path d="M0 1.44667C0 0.647693 0.645543 0 1.44186 0H71.3721C72.1684 0 72.814 0.647695 72.814 1.44667V215.553C72.814 216.352 72.1684 217 71.3721 217H1.44186C0.645543 217 0 216.352 0 215.553V1.44667Z"/>
<path d="M87.2326 2.89333C87.2326 1.5294 87.2326 0.847438 87.6549 0.423719C88.0772 0 88.7569 0 90.1163 0H157.163C158.522 0 159.202 0 159.624 0.423719C160.047 0.847438 160.047 1.5294 160.047 2.89333V30.9931C160.047 62.7335 160.047 78.6037 150.877 88.9768C149.913 90.0674 148.884 91.099 147.798 92.0662C137.459 101.267 121.641 101.267 90.0064 101.267C88.7536 101.267 88.1271 101.267 87.7177 100.902C87.6746 100.864 87.6339 100.823 87.5957 100.78C87.2326 100.369 87.2326 99.7406 87.2326 98.4835V2.89333Z"/>
<path d="M87.2326 118.516C87.2326 117.259 87.2326 116.631 87.5957 116.22C87.6339 116.177 87.6746 116.136 87.7177 116.098C88.1271 115.733 88.7536 115.733 90.0064 115.733C121.641 115.733 137.459 115.733 147.798 124.934C148.884 125.901 149.913 126.933 150.877 128.023C160.047 138.396 160.047 154.266 160.047 186.007V214.107C160.047 215.471 160.047 216.153 159.624 216.576C159.202 217 158.522 217 157.163 217H90.1163C88.7569 217 88.0772 217 87.6549 216.576C87.2326 216.153 87.2326 215.471 87.2326 214.107V118.516Z"/>
</mask>
<path d="M0 1.44667C0 0.647693 0.645543 0 1.44186 0H71.3721C72.1684 0 72.814 0.647695 72.814 1.44667V215.553C72.814 216.352 72.1684 217 71.3721 217H1.44186C0.645543 217 0 216.352 0 215.553V1.44667Z" fill="white"/>
<path d="M87.2326 2.89333C87.2326 1.5294 87.2326 0.847438 87.6549 0.423719C88.0772 0 88.7569 0 90.1163 0H157.163C158.522 0 159.202 0 159.624 0.423719C160.047 0.847438 160.047 1.5294 160.047 2.89333V30.9931C160.047 62.7335 160.047 78.6037 150.877 88.9768C149.913 90.0674 148.884 91.099 147.798 92.0662C137.459 101.267 121.641 101.267 90.0064 101.267C88.7536 101.267 88.1271 101.267 87.7177 100.902C87.6746 100.864 87.6339 100.823 87.5957 100.78C87.2326 100.369 87.2326 99.7406 87.2326 98.4835V2.89333Z" fill="white"/>
<path d="M87.2326 118.516C87.2326 117.259 87.2326 116.631 87.5957 116.22C87.6339 116.177 87.6746 116.136 87.7177 116.098C88.1271 115.733 88.7536 115.733 90.0064 115.733C121.641 115.733 137.459 115.733 147.798 124.934C148.884 125.901 149.913 126.933 150.877 128.023C160.047 138.396 160.047 154.266 160.047 186.007V214.107C160.047 215.471 160.047 216.153 159.624 216.576C159.202 217 158.522 217 157.163 217H90.1163C88.7569 217 88.0772 217 87.6549 216.576C87.2326 216.153 87.2326 215.471 87.2326 214.107V118.516Z" fill="white"/>
<path d="M87.7177 100.902L86.7205 102.023L86.7205 102.023L87.7177 100.902ZM87.5957 100.78L86.4719 101.773L87.5957 100.78ZM150.877 88.9768L152 89.9703L152 89.9703L150.877 88.9768ZM147.798 92.0662L148.795 93.1868L148.795 93.1868L147.798 92.0662ZM147.798 124.934L148.795 123.813L148.795 123.813L147.798 124.934ZM150.877 128.023L152 127.03L152 127.03L150.877 128.023ZM87.7177 116.098L86.7205 114.977L86.7205 114.977L87.7177 116.098ZM87.5957 116.22L86.4719 115.227L87.5957 116.22ZM1.44186 1.5H71.3721V-1.5H1.44186V1.5ZM71.314 1.44667V215.553H74.314V1.44667H71.314ZM71.3721 215.5H1.44186V218.5H71.3721V215.5ZM1.5 215.553V1.44667H-1.5V215.553H1.5ZM1.44186 215.5C1.47864 215.5 1.5 215.529 1.5 215.553H-1.5C-1.5 217.176 -0.187551 218.5 1.44186 218.5V215.5ZM71.314 215.553C71.314 215.529 71.3353 215.5 71.3721 215.5V218.5C73.0015 218.5 74.314 217.176 74.314 215.553H71.314ZM71.3721 1.5C71.3353 1.5 71.314 1.47141 71.314 1.44667H74.314C74.314 -0.176017 73.0016 -1.5 71.3721 -1.5V1.5ZM1.44186 -1.5C-0.187585 -1.5 -1.5 -0.176025 -1.5 1.44667H1.5C1.5 1.47141 1.47867 1.5 1.44186 1.5V-1.5ZM90.1163 1.5H157.163V-1.5H90.1163V1.5ZM158.547 2.89333V30.9931H161.547V2.89333H158.547ZM88.7326 98.4835V2.89333H85.7326V98.4835H88.7326ZM90.0064 99.7667C89.3409 99.7667 88.9816 99.7639 88.7318 99.7327C88.5192 99.7061 88.6015 99.6808 88.7149 99.7817L86.7205 102.023C87.2433 102.488 87.8435 102.645 88.3597 102.71C88.8388 102.769 89.4191 102.767 90.0064 102.767V99.7667ZM85.7326 98.4835C85.7326 99.0733 85.7298 99.6544 85.7894 100.134C85.8534 100.65 86.009 101.25 86.4719 101.773L88.7196 99.7865C88.8193 99.8992 88.7933 99.9796 88.7665 99.7643C88.7353 99.5125 88.7326 99.1509 88.7326 98.4835H85.7326ZM88.7149 99.7817C88.7164 99.7831 88.718 99.7847 88.7196 99.7865L86.4719 101.773C86.5498 101.862 86.6329 101.945 86.7205 102.023L88.7149 99.7817ZM158.547 30.9931C158.547 46.9021 158.544 58.695 157.412 67.8129C156.284 76.8944 154.056 83.115 149.753 87.9834L152 89.9703C156.867 84.4656 159.224 77.5645 160.389 68.1825C161.549 58.8369 161.547 46.8245 161.547 30.9931H158.547ZM90.0064 102.767C105.785 102.767 117.758 102.769 127.074 101.605C136.427 100.436 143.307 98.0701 148.795 93.1868L146.8 90.9457C141.949 95.2628 135.751 97.4971 126.702 98.6282C117.616 99.7639 105.863 99.7667 90.0064 99.7667V102.767ZM149.753 87.9834C148.828 89.029 147.843 90.0183 146.8 90.9457L148.795 93.1868C149.926 92.1797 150.997 91.1057 152 89.9703L149.753 87.9834ZM157.163 1.5C157.885 1.5 158.275 1.50321 158.544 1.5395C158.77 1.56991 158.676 1.59679 158.562 1.48261L160.687 -0.635175C160.151 -1.17307 159.505 -1.35805 158.945 -1.43357C158.429 -1.50321 157.8 -1.5 157.163 -1.5V1.5ZM161.547 2.89333C161.547 2.25363 161.55 1.62346 161.48 1.10672C161.405 0.547348 161.222 -0.0979712 160.687 -0.635175L158.562 1.48261C158.449 1.36913 158.476 1.27665 158.507 1.50517C158.543 1.77633 158.547 2.1691 158.547 2.89333H161.547ZM90.1163 -1.5C89.4791 -1.5 88.8499 -1.50321 88.3336 -1.43357C87.7738 -1.35805 87.1286 -1.17307 86.5925 -0.635175L88.7173 1.48261C88.6035 1.59679 88.5093 1.56991 88.7347 1.5395C89.0038 1.50321 89.394 1.5 90.1163 1.5V-1.5ZM88.7326 2.89333C88.7326 2.1691 88.7357 1.77633 88.7721 1.50517C88.8027 1.27665 88.8304 1.36913 88.7173 1.48261L86.5925 -0.635175C86.057 -0.0979713 85.8736 0.547348 85.7986 1.10672C85.7294 1.62346 85.7326 2.25363 85.7326 2.89333H88.7326ZM158.547 186.007V214.107H161.547V186.007H158.547ZM157.163 215.5H90.1163V218.5H157.163V215.5ZM88.7326 214.107V118.516H85.7326V214.107H88.7326ZM90.1163 215.5C89.394 215.5 89.0038 215.497 88.7347 215.46C88.5093 215.43 88.6035 215.403 88.7173 215.517L86.5925 217.635C87.1286 218.173 87.7738 218.358 88.3337 218.434C88.8499 218.503 89.4791 218.5 90.1163 218.5V215.5ZM85.7326 214.107C85.7326 214.746 85.7294 215.377 85.7986 215.893C85.8736 216.453 86.057 217.098 86.5925 217.635L88.7173 215.517C88.8304 215.631 88.8027 215.723 88.7721 215.495C88.7357 215.224 88.7326 214.831 88.7326 214.107H85.7326ZM158.547 214.107C158.547 214.831 158.543 215.224 158.507 215.495C158.476 215.723 158.449 215.631 158.562 215.517L160.687 217.635C161.222 217.098 161.405 216.453 161.48 215.893C161.55 215.377 161.547 214.746 161.547 214.107H158.547ZM157.163 218.5C157.8 218.5 158.429 218.503 158.945 218.434C159.505 218.358 160.151 218.173 160.687 217.635L158.562 215.517C158.676 215.403 158.77 215.43 158.544 215.46C158.275 215.497 157.885 215.5 157.163 215.5V218.5ZM90.0064 117.233C105.863 117.233 117.616 117.236 126.702 118.372C135.751 119.503 141.949 121.737 146.8 126.054L148.795 123.813C143.307 118.93 136.427 116.564 127.074 115.395C117.758 114.231 105.785 114.233 90.0064 114.233V117.233ZM161.547 186.007C161.547 170.175 161.549 158.163 160.389 148.817C159.224 139.435 156.867 132.534 152 127.03L149.753 129.017C154.056 133.885 156.284 140.106 157.412 149.187C158.544 158.305 158.547 170.098 158.547 186.007H161.547ZM146.8 126.054C147.843 126.982 148.828 127.971 149.753 129.017L152 127.03C150.997 125.894 149.926 124.82 148.795 123.813L146.8 126.054ZM90.0064 114.233C89.4191 114.233 88.8388 114.231 88.3597 114.29C87.8435 114.355 87.2433 114.512 86.7205 114.977L88.7149 117.218C88.6015 117.319 88.5192 117.294 88.7318 117.267C88.9816 117.236 89.3409 117.233 90.0064 117.233V114.233ZM88.7326 118.516C88.7326 117.849 88.7353 117.487 88.7665 117.236C88.7933 117.02 88.8192 117.101 88.7196 117.214L86.4719 115.227C86.009 115.75 85.8534 116.35 85.7894 116.866C85.7298 117.346 85.7326 117.927 85.7326 118.516H88.7326ZM86.7205 114.977C86.6327 115.055 86.5497 115.139 86.4719 115.227L88.7196 117.214C88.7181 117.215 88.7165 117.217 88.7149 117.218L86.7205 114.977Z" fill="white" mask="url(#path-4-inside-2_1_2)"/>
</mask>
<g mask="url(#mask0_1_2)">
<line x1="143.177" y1="-300.583" x2="-148.74" y2="205.031" stroke="white" stroke-width="1.5"/>
<line x1="152.219" y1="-287.667" x2="-139.698" y2="217.948" stroke="white" stroke-width="1.5"/>
<line x1="161.26" y1="-274.75" x2="-130.657" y2="230.865" stroke="white" stroke-width="1.5"/>
<line x1="170.302" y1="-261.833" x2="-121.615" y2="243.781" stroke="white" stroke-width="1.5"/>
<line x1="179.344" y1="-248.917" x2="-112.573" y2="256.698" stroke="white" stroke-width="1.5"/>
<line x1="188.385" y1="-236" x2="-103.532" y2="269.615" stroke="white" stroke-width="1.5"/>
<line x1="197.427" y1="-223.083" x2="-94.4899" y2="282.531" stroke="white" stroke-width="1.5"/>
<line x1="206.469" y1="-210.167" x2="-85.4479" y2="295.448" stroke="white" stroke-width="1.5"/>
<line x1="215.51" y1="-197.25" x2="-76.4069" y2="308.365" stroke="white" stroke-width="1.5"/>
<line x1="224.552" y1="-184.333" x2="-67.3649" y2="321.281" stroke="white" stroke-width="1.5"/>
<line x1="233.594" y1="-171.417" x2="-58.3229" y2="334.198" stroke="white" stroke-width="1.5"/>
<line x1="242.635" y1="-158.5" x2="-49.2819" y2="347.115" stroke="white" stroke-width="1.5"/>
<line x1="251.677" y1="-145.583" x2="-40.2399" y2="360.031" stroke="white" stroke-width="1.5"/>
<line x1="260.719" y1="-132.667" x2="-31.1979" y2="372.948" stroke="white" stroke-width="1.5"/>
<line x1="269.76" y1="-119.75" x2="-22.1569" y2="385.865" stroke="white" stroke-width="1.5"/>
<line x1="278.802" y1="-106.833" x2="-13.1149" y2="398.781" stroke="white" stroke-width="1.5"/>
<line x1="287.844" y1="-93.9166" x2="-4.07287" y2="411.698" stroke="white" stroke-width="1.5"/>
<line x1="296.885" y1="-81" x2="4.96815" y2="424.615" stroke="white" stroke-width="1.5"/>
<line x1="305.927" y1="-68.0833" x2="14.0101" y2="437.531" stroke="white" stroke-width="1.5"/>
<line x1="314.969" y1="-55.1666" x2="23.0521" y2="450.448" stroke="white" stroke-width="1.5"/>
<line x1="324.01" y1="-42.25" x2="32.0931" y2="463.365" stroke="white" stroke-width="1.5"/>
<line x1="333.052" y1="-29.3333" x2="41.1351" y2="476.281" stroke="white" stroke-width="1.5"/>
<line x1="342.094" y1="-16.4166" x2="50.1771" y2="489.198" stroke="white" stroke-width="1.5"/>
<line x1="351.135" y1="-3.49996" x2="59.2181" y2="502.115" stroke="white" stroke-width="1.5"/>
</g>
</svg>
