<svg width="103" height="103" viewBox="0 0 103 103" fill="none" xmlns="http://www.w3.org/2000/svg">
<circle r="50.1328" transform="matrix(-1 0 0 1 51.1328 51.1328)" stroke="white" stroke-width="2"/>
<path d="M73.0054 47.1081L50.8656 40.9296C54.5778 40.9296 61.7675 40.4609 63.1742 38.5852C63.3676 38.3274 63.5189 38.0629 63.636 37.7985C64.474 35.9066 62.4496 34.3707 60.3837 34.2541C54.5345 33.9238 42.7424 33.5609 38.5559 35.6542C33.8667 37.9989 30.936 39.1712 29.1775 50.8942C27.4191 62.6172 39.1421 65.3527 45.0036 67.3065L62.1003 71.3293C63.6915 71.7037 65.2991 70.7744 65.7688 69.2088C66.2724 67.5299 65.2807 65.7686 63.5839 65.3287L50.8651 62.0312L70.2901 66.6362C71.8899 67.0126 73.5061 66.0784 73.9783 64.5042C74.4811 62.8283 73.5018 61.0679 71.8126 60.6114L53.2086 55.5833L73.8104 60.7753C75.4086 61.1514 77.0233 60.218 77.4951 58.6454C77.9981 56.9689 77.0165 55.2083 75.326 54.7548L54.3825 49.1357L71.4518 53.152C73.0584 53.53 74.6815 52.5917 75.1558 51.0109C75.6578 49.3374 74.6883 47.5778 73.0054 47.1081Z" fill="#131B24"/>
<path d="M50.8656 40.9296L73.0054 47.1081C74.6883 47.5778 75.6578 49.3374 75.1558 51.0109C74.6815 52.5917 73.0584 53.53 71.4518 53.152L54.3825 49.1357L75.326 54.7548C77.0165 55.2083 77.9981 56.9689 77.4951 58.6454C77.0233 60.218 75.4086 61.1514 73.8104 60.7753L53.2086 55.5833L71.8126 60.6114C73.5018 61.0679 74.4811 62.8283 73.9783 64.5042C73.5061 66.0784 71.8899 67.0126 70.2901 66.6362L50.8651 62.0312L63.5839 65.3287C65.2807 65.7686 66.2724 67.5299 65.7688 69.2088C65.2991 70.7744 63.6915 71.7037 62.1003 71.3293L45.0036 67.3065C39.1421 65.3527 27.4191 62.6172 29.1775 50.8942C30.936 39.1712 33.8667 37.9989 38.5559 35.6542C42.7424 33.5609 54.5345 33.9238 60.3837 34.2541C62.4496 34.3707 64.474 35.9066 63.636 37.7985C63.5189 38.0629 63.3676 38.3274 63.1742 38.5852C61.7675 40.4609 54.5778 40.9296 50.8656 40.9296ZM50.8656 40.9296L47 40" stroke="white" stroke-width="1.77681" stroke-linecap="round"/>
</svg>
