<svg width="40" height="40" viewBox="0 0 40 40" fill="none" xmlns="http://www.w3.org/2000/svg">
<mask id="path-1-inside-1_364_11727" fill="white">
<path d="M39.9997 35.7977C39.9997 38.1173 38.1256 39.9977 35.8137 39.9977C33.5018 39.9977 31.6276 38.1173 31.6276 35.7977C31.6276 33.4781 33.5018 31.5977 35.8137 31.5977C38.1256 31.5977 39.9997 33.4781 39.9997 35.7977Z"/>
</mask>
<path d="M39.4997 35.7977C39.4997 37.8427 37.8478 39.4977 35.8137 39.4977V40.4977C38.4033 40.4977 40.4997 38.3918 40.4997 35.7977H39.4997ZM35.8137 39.4977C33.7795 39.4977 32.1276 37.8427 32.1276 35.7977H31.1276C31.1276 38.3918 33.2241 40.4977 35.8137 40.4977V39.4977ZM32.1276 35.7977C32.1276 33.7526 33.7795 32.0977 35.8137 32.0977V31.0977C33.2241 31.0977 31.1276 33.2035 31.1276 35.7977H32.1276ZM35.8137 32.0977C37.8478 32.0977 39.4997 33.7526 39.4997 35.7977H40.4997C40.4997 33.2035 38.4033 31.0977 35.8137 31.0977V32.0977Z" fill="white" mask="url(#path-1-inside-1_364_11727)"/>
<mask id="path-3-inside-2_364_11727" fill="white">
<path d="M0 0.266666C0 0.11939 0.118994 0 0.265781 0H13.1561C13.3029 0 13.4219 0.119391 13.4219 0.266667V39.7333C13.4219 39.8806 13.3029 40 13.1561 40H0.265781C0.118994 40 0 39.8806 0 39.7333V0.266666Z"/>
<path d="M16.0797 0.533333C16.0797 0.281918 16.0797 0.15621 16.1576 0.0781049C16.2354 0 16.3607 0 16.6113 0H28.9701C29.2207 0 29.346 0 29.4238 0.0781049C29.5017 0.15621 29.5017 0.281918 29.5017 0.533333V5.71302C29.5017 11.5638 29.5017 14.4892 27.8114 16.4013C27.6337 16.6023 27.4441 16.7924 27.2438 16.9707C25.338 18.6667 22.4224 18.6667 16.591 18.6667C16.3601 18.6667 16.2446 18.6667 16.1692 18.5995C16.1612 18.5924 16.1537 18.5849 16.1467 18.5769C16.0797 18.5012 16.0797 18.3854 16.0797 18.1536V0.533333Z"/>
<path d="M16.0797 21.8463C16.0797 21.6146 16.0797 21.4988 16.1467 21.4231C16.1537 21.4151 16.1612 21.4076 16.1692 21.4005C16.2446 21.3333 16.3601 21.3333 16.591 21.3333C22.4224 21.3333 25.338 21.3333 27.2438 23.0293C27.4441 23.2076 27.6337 23.3977 27.8114 23.5987C29.5017 25.5108 29.5017 28.4362 29.5017 34.287V39.4667C29.5017 39.7181 29.5017 39.8438 29.4238 39.9219C29.346 40 29.2207 40 28.9701 40H16.6113C16.3607 40 16.2354 40 16.1576 39.9219C16.0797 39.8438 16.0797 39.7181 16.0797 39.4667V21.8463Z"/>
</mask>
<path d="M16.1692 18.5995L15.8368 18.973L16.1692 18.5995ZM16.1467 18.5769L16.5213 18.2458L16.1467 18.5769ZM27.8114 16.4013L28.186 16.7324L27.8114 16.4013ZM27.2438 16.9707L27.5762 17.3443L27.2438 16.9707ZM27.2438 23.0293L27.5762 22.6557L27.2438 23.0293ZM27.8114 23.5987L28.186 23.2676L27.8114 23.5987ZM16.1692 21.4005L15.8368 21.027L16.1692 21.4005ZM16.1467 21.4231L16.5213 21.7542L16.1467 21.4231ZM0.265781 0.5H13.1561V-0.5H0.265781V0.5ZM12.9219 0.266667V39.7333H13.9219V0.266667H12.9219ZM13.1561 39.5H0.265781V40.5H13.1561V39.5ZM0.5 39.7333V0.266666H-0.5V39.7333H0.5ZM0.265781 39.5C0.396694 39.5 0.5 39.606 0.5 39.7333H-0.5C-0.5 40.1552 -0.158705 40.5 0.265781 40.5V39.5ZM12.9219 39.7333C12.9219 39.606 13.0252 39.5 13.1561 39.5V40.5C13.5806 40.5 13.9219 40.1552 13.9219 39.7333H12.9219ZM13.1561 0.5C13.0252 0.5 12.9219 0.393963 12.9219 0.266667H13.9219C13.9219 -0.155182 13.5806 -0.5 13.1561 -0.5V0.5ZM0.265781 -0.5C-0.158715 -0.5 -0.5 -0.155182 -0.5 0.266666H0.5C0.5 0.393963 0.396703 0.5 0.265781 0.5V-0.5ZM16.6113 0.5H28.9701V-0.5H16.6113V0.5ZM29.0017 0.533333V5.71302H30.0017V0.533333H29.0017ZM16.5797 18.1536V0.533333H15.5797V18.1536H16.5797ZM16.591 18.1667C16.5316 18.1667 16.4875 18.1666 16.4501 18.1658C16.4125 18.1649 16.3932 18.1633 16.3838 18.1621C16.3747 18.161 16.3874 18.1616 16.4109 18.1705C16.4377 18.1806 16.4705 18.1984 16.5016 18.226L15.8368 18.973C15.9805 19.101 16.142 19.1397 16.2598 19.1544C16.3652 19.1676 16.4886 19.1667 16.591 19.1667V18.1667ZM15.5797 18.1536C15.5797 18.2566 15.5788 18.38 15.5919 18.4854C15.6065 18.6029 15.6448 18.7642 15.7721 18.9081L16.5213 18.2458C16.5487 18.2768 16.5663 18.3095 16.5762 18.3361C16.5849 18.3592 16.5855 18.3715 16.5843 18.3622C16.5831 18.3525 16.5815 18.3329 16.5806 18.2952C16.5798 18.2576 16.5797 18.2133 16.5797 18.1536H15.5797ZM16.5016 18.226C16.5085 18.2322 16.5151 18.2388 16.5213 18.2458L15.7721 18.9081C15.7924 18.9311 15.814 18.9527 15.8368 18.973L16.5016 18.226ZM29.0017 5.71302C29.0017 8.65133 29.0008 10.8088 28.7942 12.4725C28.5891 14.1242 28.1881 15.2201 27.4368 16.0701L28.186 16.7324C29.1249 15.6703 29.5691 14.3475 29.7866 12.5957C30.0026 10.8561 30.0017 8.62546 30.0017 5.71302H29.0017ZM16.591 19.1667C19.4937 19.1667 21.7173 19.1676 23.4515 18.9508C25.1982 18.7325 26.5173 18.2866 27.5762 17.3443L26.9114 16.5972C26.0646 17.3508 24.9729 17.7529 23.3275 17.9585C21.6697 18.1657 19.5197 18.1667 16.591 18.1667V19.1667ZM27.4368 16.0701C27.2723 16.2562 27.0968 16.4322 26.9114 16.5972L27.5762 17.3443C27.7914 17.1527 27.9951 16.9484 28.186 16.7324L27.4368 16.0701ZM28.9701 0.5C29.0346 0.5 29.0825 0.500033 29.1231 0.50106C29.1639 0.502094 29.1849 0.503923 29.1949 0.505275C29.2046 0.506583 29.1903 0.505742 29.1645 0.495123C29.1348 0.482853 29.1004 0.461942 29.0697 0.43107L29.778 -0.27486C29.6307 -0.422591 29.4567 -0.468466 29.3286 -0.485749C29.215 -0.501069 29.0812 -0.5 28.9701 -0.5V0.5ZM30.0017 0.533333C30.0017 0.421714 30.0027 0.287866 29.9875 0.17432C29.9704 0.0465606 29.925 -0.127359 29.778 -0.27486L29.0697 0.43107C29.0389 0.400215 29.0183 0.365923 29.0062 0.336526C28.9958 0.311112 28.995 0.297133 28.9964 0.307135C28.9977 0.317449 28.9996 0.33866 29.0006 0.379694C29.0016 0.420476 29.0017 0.468627 29.0017 0.533333H30.0017ZM16.6113 -0.5C16.5002 -0.5 16.3664 -0.501069 16.2528 -0.485749C16.1247 -0.468466 15.9507 -0.422591 15.8034 -0.27486L16.5117 0.43107C16.481 0.461942 16.4466 0.482853 16.4169 0.495123C16.3911 0.505742 16.3768 0.506583 16.3865 0.505275C16.3965 0.503923 16.4175 0.502094 16.4583 0.50106C16.4989 0.500033 16.5468 0.5 16.6113 0.5V-0.5ZM16.5797 0.533333C16.5797 0.468627 16.5798 0.420476 16.5808 0.379694C16.5818 0.33866 16.5837 0.317449 16.585 0.307135C16.5864 0.297133 16.5856 0.311112 16.5752 0.336526C16.5631 0.365923 16.5425 0.400215 16.5117 0.43107L15.8034 -0.27486C15.6564 -0.127359 15.611 0.0465605 15.5939 0.17432C15.5787 0.287866 15.5797 0.421714 15.5797 0.533333H16.5797ZM29.0017 34.287V39.4667H30.0017V34.287H29.0017ZM28.9701 39.5H16.6113V40.5H28.9701V39.5ZM16.5797 39.4667V21.8463H15.5797V39.4667H16.5797ZM16.6113 39.5C16.5468 39.5 16.4989 39.5 16.4583 39.4989C16.4175 39.4979 16.3965 39.4961 16.3865 39.4947C16.3768 39.4934 16.3911 39.4943 16.4169 39.5049C16.4466 39.5171 16.481 39.5381 16.5117 39.5689L15.8034 40.2749C15.9507 40.4226 16.1247 40.4685 16.2528 40.4857C16.3664 40.5011 16.5002 40.5 16.6113 40.5V39.5ZM15.5797 39.4667C15.5797 39.5783 15.5787 39.7121 15.5939 39.8257C15.611 39.9534 15.6564 40.1274 15.8034 40.2749L16.5117 39.5689C16.5425 39.5998 16.5631 39.6341 16.5752 39.6635C16.5856 39.6889 16.5864 39.7029 16.585 39.6929C16.5837 39.6825 16.5818 39.6613 16.5808 39.6203C16.5798 39.5795 16.5797 39.5314 16.5797 39.4667H15.5797ZM29.0017 39.4667C29.0017 39.5314 29.0016 39.5795 29.0006 39.6203C28.9996 39.6613 28.9977 39.6825 28.9964 39.6929C28.995 39.7029 28.9958 39.6889 29.0062 39.6635C29.0183 39.6341 29.0389 39.5998 29.0697 39.5689L29.778 40.2749C29.925 40.1274 29.9704 39.9534 29.9875 39.8257C30.0027 39.7121 30.0017 39.5783 30.0017 39.4667H29.0017ZM28.9701 40.5C29.0812 40.5 29.215 40.5011 29.3286 40.4857C29.4567 40.4685 29.6307 40.4226 29.778 40.2749L29.0697 39.5689C29.1004 39.5381 29.1348 39.5171 29.1645 39.5049C29.1903 39.4943 29.2046 39.4934 29.1949 39.4947C29.1849 39.4961 29.1639 39.4979 29.1231 39.4989C29.0825 39.5 29.0346 39.5 28.9701 39.5V40.5ZM16.591 21.8333C19.5197 21.8333 21.6697 21.8342 23.3275 22.0415C24.9729 22.2471 26.0646 22.6492 26.9114 23.4028L27.5762 22.6557C26.5173 21.7134 25.1982 21.2675 23.4515 21.0492C21.7173 20.8324 19.4937 20.8333 16.591 20.8333V21.8333ZM30.0017 34.287C30.0017 31.3745 30.0026 29.1439 29.7866 27.4042C29.5691 25.6525 29.1249 24.3297 28.186 23.2676L27.4368 23.9299C28.1881 24.7799 28.5891 25.8758 28.7942 27.5275C29.0008 29.1912 29.0017 31.3487 29.0017 34.287H30.0017ZM26.9114 23.4028C27.0968 23.5678 27.2723 23.7438 27.4368 23.9299L28.186 23.2676C27.9951 23.0516 27.7914 22.8473 27.5762 22.6557L26.9114 23.4028ZM16.591 20.8333C16.4886 20.8333 16.3652 20.8324 16.2598 20.8456C16.142 20.8603 15.9805 20.899 15.8368 21.027L16.5016 21.774C16.4705 21.8016 16.4377 21.8194 16.4109 21.8295C16.3874 21.8384 16.3747 21.839 16.3838 21.8379C16.3932 21.8367 16.4125 21.8351 16.4501 21.8342C16.4875 21.8334 16.5316 21.8333 16.591 21.8333V20.8333ZM16.5797 21.8463C16.5797 21.7867 16.5798 21.7424 16.5806 21.7048C16.5815 21.6671 16.5831 21.6475 16.5843 21.6378C16.5855 21.6285 16.5849 21.6408 16.5762 21.6639C16.5663 21.6905 16.5487 21.7232 16.5213 21.7542L15.7721 21.0919C15.6448 21.2358 15.6065 21.3971 15.5919 21.5146C15.5788 21.62 15.5797 21.7434 15.5797 21.8463H16.5797ZM15.8368 21.027C15.8139 21.0473 15.7923 21.069 15.7721 21.0919L16.5213 21.7542C16.5151 21.7612 16.5085 21.7678 16.5016 21.774L15.8368 21.027Z" fill="white" mask="url(#path-3-inside-2_364_11727)"/>
<mask id="mask0_364_11727" style="mask-type:alpha" maskUnits="userSpaceOnUse" x="0" y="0" width="30" height="40">
<mask id="path-5-inside-3_364_11727" fill="white">
<path d="M0 0.266666C0 0.11939 0.118994 0 0.265781 0H13.1561C13.3029 0 13.4219 0.119391 13.4219 0.266667V39.7333C13.4219 39.8806 13.3029 40 13.1561 40H0.265781C0.118994 40 0 39.8806 0 39.7333V0.266666Z"/>
<path d="M16.0797 0.533333C16.0797 0.281918 16.0797 0.15621 16.1576 0.0781049C16.2354 0 16.3607 0 16.6113 0H28.9701C29.2207 0 29.346 0 29.4238 0.0781049C29.5017 0.15621 29.5017 0.281918 29.5017 0.533333V5.71302C29.5017 11.5638 29.5017 14.4892 27.8114 16.4013C27.6337 16.6023 27.4441 16.7924 27.2438 16.9707C25.338 18.6667 22.4224 18.6667 16.591 18.6667C16.3601 18.6667 16.2446 18.6667 16.1692 18.5995C16.1612 18.5924 16.1537 18.5849 16.1467 18.5769C16.0797 18.5012 16.0797 18.3854 16.0797 18.1536V0.533333Z"/>
<path d="M16.0797 21.8463C16.0797 21.6146 16.0797 21.4988 16.1467 21.4231C16.1537 21.4151 16.1612 21.4076 16.1692 21.4005C16.2446 21.3333 16.3601 21.3333 16.591 21.3333C22.4224 21.3333 25.338 21.3333 27.2438 23.0293C27.4441 23.2076 27.6337 23.3977 27.8114 23.5987C29.5017 25.5108 29.5017 28.4362 29.5017 34.287V39.4667C29.5017 39.7181 29.5017 39.8438 29.4238 39.9219C29.346 40 29.2207 40 28.9701 40H16.6113C16.3607 40 16.2354 40 16.1576 39.9219C16.0797 39.8438 16.0797 39.7181 16.0797 39.4667V21.8463Z"/>
</mask>
<path d="M0 0.266666C0 0.11939 0.118994 0 0.265781 0H13.1561C13.3029 0 13.4219 0.119391 13.4219 0.266667V39.7333C13.4219 39.8806 13.3029 40 13.1561 40H0.265781C0.118994 40 0 39.8806 0 39.7333V0.266666Z" fill="white"/>
<path d="M16.0797 0.533333C16.0797 0.281918 16.0797 0.15621 16.1576 0.0781049C16.2354 0 16.3607 0 16.6113 0H28.9701C29.2207 0 29.346 0 29.4238 0.0781049C29.5017 0.15621 29.5017 0.281918 29.5017 0.533333V5.71302C29.5017 11.5638 29.5017 14.4892 27.8114 16.4013C27.6337 16.6023 27.4441 16.7924 27.2438 16.9707C25.338 18.6667 22.4224 18.6667 16.591 18.6667C16.3601 18.6667 16.2446 18.6667 16.1692 18.5995C16.1612 18.5924 16.1537 18.5849 16.1467 18.5769C16.0797 18.5012 16.0797 18.3854 16.0797 18.1536V0.533333Z" fill="white"/>
<path d="M16.0797 21.8463C16.0797 21.6146 16.0797 21.4988 16.1467 21.4231C16.1537 21.4151 16.1612 21.4076 16.1692 21.4005C16.2446 21.3333 16.3601 21.3333 16.591 21.3333C22.4224 21.3333 25.338 21.3333 27.2438 23.0293C27.4441 23.2076 27.6337 23.3977 27.8114 23.5987C29.5017 25.5108 29.5017 28.4362 29.5017 34.287V39.4667C29.5017 39.7181 29.5017 39.8438 29.4238 39.9219C29.346 40 29.2207 40 28.9701 40H16.6113C16.3607 40 16.2354 40 16.1576 39.9219C16.0797 39.8438 16.0797 39.7181 16.0797 39.4667V21.8463Z" fill="white"/>
<path d="M16.1692 18.5995L15.8368 18.973L16.1692 18.5995ZM16.1467 18.5769L16.5213 18.2458L16.1467 18.5769ZM27.8114 16.4013L28.186 16.7324L27.8114 16.4013ZM27.2438 16.9707L27.5762 17.3443L27.2438 16.9707ZM27.2438 23.0293L27.5762 22.6557L27.2438 23.0293ZM27.8114 23.5987L28.186 23.2676L27.8114 23.5987ZM16.1692 21.4005L15.8368 21.027L16.1692 21.4005ZM16.1467 21.4231L16.5213 21.7542L16.1467 21.4231ZM0.265781 0.5H13.1561V-0.5H0.265781V0.5ZM12.9219 0.266667V39.7333H13.9219V0.266667H12.9219ZM13.1561 39.5H0.265781V40.5H13.1561V39.5ZM0.5 39.7333V0.266666H-0.5V39.7333H0.5ZM0.265781 39.5C0.396694 39.5 0.5 39.606 0.5 39.7333H-0.5C-0.5 40.1552 -0.158705 40.5 0.265781 40.5V39.5ZM12.9219 39.7333C12.9219 39.606 13.0252 39.5 13.1561 39.5V40.5C13.5806 40.5 13.9219 40.1552 13.9219 39.7333H12.9219ZM13.1561 0.5C13.0252 0.5 12.9219 0.393963 12.9219 0.266667H13.9219C13.9219 -0.155182 13.5806 -0.5 13.1561 -0.5V0.5ZM0.265781 -0.5C-0.158715 -0.5 -0.5 -0.155182 -0.5 0.266666H0.5C0.5 0.393963 0.396703 0.5 0.265781 0.5V-0.5ZM16.6113 0.5H28.9701V-0.5H16.6113V0.5ZM29.0017 0.533333V5.71302H30.0017V0.533333H29.0017ZM16.5797 18.1536V0.533333H15.5797V18.1536H16.5797ZM16.591 18.1667C16.5316 18.1667 16.4875 18.1666 16.4501 18.1658C16.4125 18.1649 16.3932 18.1633 16.3838 18.1621C16.3747 18.161 16.3874 18.1616 16.4109 18.1705C16.4377 18.1806 16.4705 18.1984 16.5016 18.226L15.8368 18.973C15.9805 19.101 16.142 19.1397 16.2598 19.1544C16.3652 19.1676 16.4886 19.1667 16.591 19.1667V18.1667ZM15.5797 18.1536C15.5797 18.2566 15.5788 18.38 15.5919 18.4854C15.6065 18.6029 15.6448 18.7642 15.7721 18.9081L16.5213 18.2458C16.5487 18.2768 16.5663 18.3095 16.5762 18.3361C16.5849 18.3592 16.5855 18.3715 16.5843 18.3622C16.5831 18.3525 16.5815 18.3329 16.5806 18.2952C16.5798 18.2576 16.5797 18.2133 16.5797 18.1536H15.5797ZM16.5016 18.226C16.5085 18.2322 16.5151 18.2388 16.5213 18.2458L15.7721 18.9081C15.7924 18.9311 15.814 18.9527 15.8368 18.973L16.5016 18.226ZM29.0017 5.71302C29.0017 8.65133 29.0008 10.8088 28.7942 12.4725C28.5891 14.1242 28.1881 15.2201 27.4368 16.0701L28.186 16.7324C29.1249 15.6703 29.5691 14.3475 29.7866 12.5957C30.0026 10.8561 30.0017 8.62546 30.0017 5.71302H29.0017ZM16.591 19.1667C19.4937 19.1667 21.7173 19.1676 23.4515 18.9508C25.1982 18.7325 26.5173 18.2866 27.5762 17.3443L26.9114 16.5972C26.0646 17.3508 24.9729 17.7529 23.3275 17.9585C21.6697 18.1657 19.5197 18.1667 16.591 18.1667V19.1667ZM27.4368 16.0701C27.2723 16.2562 27.0968 16.4322 26.9114 16.5972L27.5762 17.3443C27.7914 17.1527 27.9951 16.9484 28.186 16.7324L27.4368 16.0701ZM28.9701 0.5C29.0346 0.5 29.0825 0.500033 29.1231 0.50106C29.1639 0.502094 29.1849 0.503923 29.1949 0.505275C29.2046 0.506583 29.1903 0.505742 29.1645 0.495123C29.1348 0.482853 29.1004 0.461942 29.0697 0.43107L29.778 -0.27486C29.6307 -0.422591 29.4567 -0.468466 29.3286 -0.485749C29.215 -0.501069 29.0812 -0.5 28.9701 -0.5V0.5ZM30.0017 0.533333C30.0017 0.421714 30.0027 0.287866 29.9875 0.17432C29.9704 0.0465606 29.925 -0.127359 29.778 -0.27486L29.0697 0.43107C29.0389 0.400215 29.0183 0.365923 29.0062 0.336526C28.9958 0.311112 28.995 0.297133 28.9964 0.307135C28.9977 0.317449 28.9996 0.33866 29.0006 0.379694C29.0016 0.420476 29.0017 0.468627 29.0017 0.533333H30.0017ZM16.6113 -0.5C16.5002 -0.5 16.3664 -0.501069 16.2528 -0.485749C16.1247 -0.468466 15.9507 -0.422591 15.8034 -0.27486L16.5117 0.43107C16.481 0.461942 16.4466 0.482853 16.4169 0.495123C16.3911 0.505742 16.3768 0.506583 16.3865 0.505275C16.3965 0.503923 16.4175 0.502094 16.4583 0.50106C16.4989 0.500033 16.5468 0.5 16.6113 0.5V-0.5ZM16.5797 0.533333C16.5797 0.468627 16.5798 0.420476 16.5808 0.379694C16.5818 0.33866 16.5837 0.317449 16.585 0.307135C16.5864 0.297133 16.5856 0.311112 16.5752 0.336526C16.5631 0.365923 16.5425 0.400215 16.5117 0.43107L15.8034 -0.27486C15.6564 -0.127359 15.611 0.0465605 15.5939 0.17432C15.5787 0.287866 15.5797 0.421714 15.5797 0.533333H16.5797ZM29.0017 34.287V39.4667H30.0017V34.287H29.0017ZM28.9701 39.5H16.6113V40.5H28.9701V39.5ZM16.5797 39.4667V21.8463H15.5797V39.4667H16.5797ZM16.6113 39.5C16.5468 39.5 16.4989 39.5 16.4583 39.4989C16.4175 39.4979 16.3965 39.4961 16.3865 39.4947C16.3768 39.4934 16.3911 39.4943 16.4169 39.5049C16.4466 39.5171 16.481 39.5381 16.5117 39.5689L15.8034 40.2749C15.9507 40.4226 16.1247 40.4685 16.2528 40.4857C16.3664 40.5011 16.5002 40.5 16.6113 40.5V39.5ZM15.5797 39.4667C15.5797 39.5783 15.5787 39.7121 15.5939 39.8257C15.611 39.9534 15.6564 40.1274 15.8034 40.2749L16.5117 39.5689C16.5425 39.5998 16.5631 39.6341 16.5752 39.6635C16.5856 39.6889 16.5864 39.7029 16.585 39.6929C16.5837 39.6825 16.5818 39.6613 16.5808 39.6203C16.5798 39.5795 16.5797 39.5314 16.5797 39.4667H15.5797ZM29.0017 39.4667C29.0017 39.5314 29.0016 39.5795 29.0006 39.6203C28.9996 39.6613 28.9977 39.6825 28.9964 39.6929C28.995 39.7029 28.9958 39.6889 29.0062 39.6635C29.0183 39.6341 29.0389 39.5998 29.0697 39.5689L29.778 40.2749C29.925 40.1274 29.9704 39.9534 29.9875 39.8257C30.0027 39.7121 30.0017 39.5783 30.0017 39.4667H29.0017ZM28.9701 40.5C29.0812 40.5 29.215 40.5011 29.3286 40.4857C29.4567 40.4685 29.6307 40.4226 29.778 40.2749L29.0697 39.5689C29.1004 39.5381 29.1348 39.5171 29.1645 39.5049C29.1903 39.4943 29.2046 39.4934 29.1949 39.4947C29.1849 39.4961 29.1639 39.4979 29.1231 39.4989C29.0825 39.5 29.0346 39.5 28.9701 39.5V40.5ZM16.591 21.8333C19.5197 21.8333 21.6697 21.8342 23.3275 22.0415C24.9729 22.2471 26.0646 22.6492 26.9114 23.4028L27.5762 22.6557C26.5173 21.7134 25.1982 21.2675 23.4515 21.0492C21.7173 20.8324 19.4937 20.8333 16.591 20.8333V21.8333ZM30.0017 34.287C30.0017 31.3745 30.0026 29.1439 29.7866 27.4042C29.5691 25.6525 29.1249 24.3297 28.186 23.2676L27.4368 23.9299C28.1881 24.7799 28.5891 25.8758 28.7942 27.5275C29.0008 29.1912 29.0017 31.3487 29.0017 34.287H30.0017ZM26.9114 23.4028C27.0968 23.5678 27.2723 23.7438 27.4368 23.9299L28.186 23.2676C27.9951 23.0516 27.7914 22.8473 27.5762 22.6557L26.9114 23.4028ZM16.591 20.8333C16.4886 20.8333 16.3652 20.8324 16.2598 20.8456C16.142 20.8603 15.9805 20.899 15.8368 21.027L16.5016 21.774C16.4705 21.8016 16.4377 21.8194 16.4109 21.8295C16.3874 21.8384 16.3747 21.839 16.3838 21.8379C16.3932 21.8367 16.4125 21.8351 16.4501 21.8342C16.4875 21.8334 16.5316 21.8333 16.591 21.8333V20.8333ZM16.5797 21.8463C16.5797 21.7867 16.5798 21.7424 16.5806 21.7048C16.5815 21.6671 16.5831 21.6475 16.5843 21.6378C16.5855 21.6285 16.5849 21.6408 16.5762 21.6639C16.5663 21.6905 16.5487 21.7232 16.5213 21.7542L15.7721 21.0919C15.6448 21.2358 15.6065 21.3971 15.5919 21.5146C15.5788 21.62 15.5797 21.7434 15.5797 21.8463H16.5797ZM15.8368 21.027C15.8139 21.0473 15.7923 21.069 15.7721 21.0919L16.5213 21.7542C16.5151 21.7612 16.5085 21.7678 16.5016 21.774L15.8368 21.027Z" fill="white" mask="url(#path-5-inside-3_364_11727)"/>
</mask>
<g mask="url(#mask0_364_11727)">
<line x1="26.4888" y1="-55.3516" x2="-27.3207" y2="37.8493" stroke="white" stroke-width="0.5"/>
<line x1="28.1555" y1="-52.9727" x2="-25.654" y2="40.2282" stroke="white" stroke-width="0.5"/>
<line x1="29.8222" y1="-50.5898" x2="-23.9874" y2="42.611" stroke="white" stroke-width="0.5"/>
<line x1="31.4888" y1="-48.2109" x2="-22.3207" y2="44.9899" stroke="white" stroke-width="0.5"/>
<line x1="33.1555" y1="-45.8242" x2="-20.654" y2="47.3766" stroke="white" stroke-width="0.5"/>
<line x1="34.8222" y1="-43.4453" x2="-18.9874" y2="49.7555" stroke="white" stroke-width="0.5"/>
<line x1="36.4888" y1="-41.0664" x2="-17.3207" y2="52.1344" stroke="white" stroke-width="0.5"/>
<line x1="38.1555" y1="-38.6836" x2="-15.654" y2="54.5172" stroke="white" stroke-width="0.5"/>
<line x1="39.8222" y1="-36.3047" x2="-13.9874" y2="56.8961" stroke="white" stroke-width="0.5"/>
<line x1="41.4888" y1="-33.9258" x2="-12.3207" y2="59.275" stroke="white" stroke-width="0.5"/>
<line x1="43.1555" y1="-31.543" x2="-10.654" y2="61.6579" stroke="white" stroke-width="0.5"/>
<line x1="44.8222" y1="-29.1602" x2="-8.98737" y2="64.0407" stroke="white" stroke-width="0.5"/>
<line x1="46.4888" y1="-26.7773" x2="-7.32069" y2="66.4235" stroke="white" stroke-width="0.5"/>
<line x1="48.1555" y1="-24.3984" x2="-5.65403" y2="68.8024" stroke="white" stroke-width="0.5"/>
<line x1="49.8222" y1="-22.0195" x2="-3.98734" y2="71.1813" stroke="white" stroke-width="0.5"/>
<line x1="51.4888" y1="-19.6367" x2="-2.32069" y2="73.5641" stroke="white" stroke-width="0.5"/>
<line x1="53.1555" y1="-17.2578" x2="-0.654029" y2="75.943" stroke="white" stroke-width="0.5"/>
<line x1="54.8222" y1="-14.8789" x2="1.01266" y2="78.3219" stroke="white" stroke-width="0.5"/>
<line x1="56.4888" y1="-12.4922" x2="2.67931" y2="80.7086" stroke="white" stroke-width="0.5"/>
<line x1="58.1555" y1="-10.1133" x2="4.34597" y2="83.0875" stroke="white" stroke-width="0.5"/>
<line x1="59.8222" y1="-7.73047" x2="6.01266" y2="85.4704" stroke="white" stroke-width="0.5"/>
<line x1="61.4888" y1="-5.35156" x2="7.67931" y2="87.8493" stroke="white" stroke-width="0.5"/>
<line x1="63.1555" y1="-2.97266" x2="9.34597" y2="90.2282" stroke="white" stroke-width="0.5"/>
<line x1="64.8222" y1="-0.589844" x2="11.0127" y2="92.611" stroke="white" stroke-width="0.5"/>
</g>
</svg>
