<svg width="103" height="103" viewBox="0 0 103 103" fill="none" xmlns="http://www.w3.org/2000/svg">
<circle cx="51.867" cy="51.1328" r="50.1328" stroke="white" stroke-width="2"/>
<path d="M32.9476 48.3479L55.0874 42.1693C51.3752 42.1693 44.1855 41.7006 42.7788 39.8249C42.5854 39.5671 42.4342 39.3027 42.317 39.0383C41.479 37.1463 43.5034 35.6105 45.5693 35.4938C51.4185 35.1636 63.2106 34.8007 67.3971 36.8939C72.0863 39.2386 75.017 40.4109 76.7755 52.1339C78.5339 63.8569 66.8109 66.5924 60.9494 68.5463L43.8527 72.5691C42.2615 72.9434 40.6539 72.0142 40.1842 70.4485C39.6806 68.7696 40.6723 67.0083 42.3691 66.5684L55.0879 63.2709L35.6629 67.876C34.0631 68.2524 32.4469 67.3181 31.9747 65.744C31.4719 64.0681 32.4513 62.3076 34.1404 61.8511L52.7444 56.823L32.1426 62.0151C30.5444 62.3911 28.9297 61.4578 28.4579 59.8851C27.9549 58.2087 28.9365 56.4481 30.627 55.9945L51.5705 50.3754L34.5012 54.3917C32.8946 54.7697 31.2715 53.8315 30.7972 52.2506C30.2952 50.5771 31.2647 48.8175 32.9476 48.3479Z" fill="#131B24"/>
<path d="M55.0874 42.1693L32.9476 48.3479C31.2647 48.8175 30.2952 50.5771 30.7972 52.2506C31.2715 53.8315 32.8946 54.7697 34.5012 54.3917L51.5705 50.3754L30.627 55.9945C28.9365 56.4481 27.9549 58.2087 28.4579 59.8851C28.9297 61.4578 30.5444 62.3911 32.1426 62.0151L52.7444 56.823L34.1404 61.8511C32.4512 62.3076 31.4719 64.0681 31.9747 65.744C32.4469 67.3181 34.0631 68.2524 35.6629 67.876L55.0879 63.2709L42.3691 66.5684C40.6723 67.0083 39.6806 68.7696 40.1842 70.4485C40.6539 72.0142 42.2615 72.9434 43.8527 72.5691L60.9494 68.5463C66.8109 66.5924 78.5339 63.8569 76.7755 52.1339C75.017 40.4109 72.0863 39.2386 67.3971 36.8939C63.2106 34.8007 51.4185 35.1636 45.5693 35.4938C43.5034 35.6105 41.479 37.1463 42.317 39.0383C42.4342 39.3027 42.5854 39.5671 42.7788 39.8249C44.1855 41.7006 51.3752 42.1693 55.0874 42.1693ZM55.0874 42.1693C55.0874 44.3185 55.9085 48.3827 59.191 49.7895" stroke="white" stroke-width="1.77681" stroke-linecap="round"/>
</svg>
